<?xml version="1.0" encoding="UTF-8"?>
<svg version="1.1" xmlns="http://www.w3.org/2000/svg" width="500" height="500">
<path d="M0 0 C1.07314453 -0.020625 2.14628906 -0.04125 3.25195312 -0.0625 C9.71025836 -0.09413897 14.60581649 0.39820564 20.4375 3.25 C22.9375 5.9375 22.9375 5.9375 24.4375 8.25 C24.7675 5.61 25.0975 2.97 25.4375 0.25 C31.0475 0.25 36.6575 0.25 42.4375 0.25 C42.9325 3.715 42.9325 3.715 43.4375 7.25 C44.18 6.46625 44.9225 5.6825 45.6875 4.875 C50.19051443 0.57666804 53.07988658 -0.0423948 59.3125 -0.0625 C60.50617188 -0.07925781 61.69984375 -0.09601563 62.9296875 -0.11328125 C67.71092884 0.38188071 70.97475054 2.07167405 74.6875 5.0625 C79.12557099 10.61008874 78.62041234 16.4822434 78.4375 23.25 C73.1575 23.25 67.8775 23.25 62.4375 23.25 C61.9425 19.785 61.9425 19.785 61.4375 16.25 C60.1175 16.25 58.7975 16.25 57.4375 16.25 C57.89329574 20.97845876 58.78632209 23.21141131 62.21875 26.484375 C62.97800781 27.22300781 63.73726563 27.96164063 64.51953125 28.72265625 C65.71642578 29.84994141 65.71642578 29.84994141 66.9375 31 C68.51226329 32.51370623 70.08527186 34.02924077 71.65625 35.546875 C72.7071582 36.54219238 72.7071582 36.54219238 73.77929688 37.55761719 C75.4375 39.25 75.4375 39.25 76.4375 41.25 C76.53546875 40.115625 76.6334375 38.98125 76.734375 37.8125 C78.22046216 22.22413695 78.22046216 22.22413695 82.4375 16.25 C89.09422905 10.95178708 95.16974696 10.49552824 103.4375 11.25 C108.75049984 12.82422218 112.51922711 15.46403246 115.4375 20.25 C116.1875 23.0625 116.1875 23.0625 116.4375 25.25 C117.0975 25.25 117.7575 25.25 118.4375 25.25 C118.52 24.363125 118.6025 23.47625 118.6875 22.5625 C119.56810787 18.67314859 120.58803818 17.02447598 123.4375 14.25 C129.66385314 10.40820764 136.27922516 10.45463613 143.4375 11.25 C148.88214985 12.8473263 152.26601853 15.49277779 155.4375 20.25 C155.7675 17.61 156.0975 14.97 156.4375 12.25 C161.7175 12.25 166.9975 12.25 172.4375 12.25 C172.7675 14.89 173.0975 17.53 173.4375 20.25 C173.953125 19.321875 174.46875 18.39375 175 17.4375 C177.48170207 13.83007741 180.15855994 12.12310581 184.4375 11.25 C192.20417834 10.50196083 200.09146487 10.07086806 206.4375 15.25 C207.4275 16.57 208.4175 17.89 209.4375 19.25 C209.7675 12.98 210.0975 6.71 210.4375 0.25 C216.0475 0.25 221.6575 0.25 227.4375 0.25 C227.4375 25.66 227.4375 51.07 227.4375 77.25 C216.5475 77.25 205.6575 77.25 194.4375 77.25 C194.1075 76.26 193.7775 75.27 193.4375 74.25 C192.963125 74.91 192.48875 75.57 192 76.25 C188.72115936 78.80909514 186.68239835 78.76497887 182.625 78.578125 C179.64932468 78.1317737 177.75724386 77.14797225 175.4375 75.25 C174.7775 74.26 174.1175 73.27 173.4375 72.25 C173.1075 73.9 172.7775 75.55 172.4375 77.25 C167.1575 77.25 161.8775 77.25 156.4375 77.25 C156.1075 74.61 155.7775 71.97 155.4375 69.25 C154.756875 70.178125 154.07625 71.10625 153.375 72.0625 C149.62460091 76.45701196 146.02768327 77.98205001 140.37890625 78.56640625 C133.65519409 78.80737166 127.83819223 78.5891311 122.4375 74.25 C118.4375 69.35 118.4375 69.35 118.4375 65.25 C117.7775 65.25 117.1175 65.25 116.4375 65.25 C116.355 65.971875 116.2725 66.69375 116.1875 67.4375 C114.9248007 72.17262237 112.6304753 74.51390886 108.5 77.0625 C102.17716827 79.45233921 93.78091721 79.46204845 87.4375 77.125 C83.34800861 74.56906788 80.62173538 71.61847077 78.4375 67.25 C78.14617187 67.79269531 77.85484375 68.33539063 77.5546875 68.89453125 C74.8341883 73.6425723 72.92168782 76.6830892 67.4375 78.25 C59.88145131 79.02927917 52.59476633 79.20917756 46.4375 74.25 C43.10394788 70.06169093 41.29955889 66.59616749 41.33984375 61.23828125 C41.34306641 60.48095703 41.34628906 59.72363281 41.34960938 58.94335938 C41.36217773 57.76483398 41.36217773 57.76483398 41.375 56.5625 C41.37951172 55.76521484 41.38402344 54.96792969 41.38867188 54.14648438 C41.4004415 52.18095743 41.41837652 50.21546915 41.4375 48.25 C46.7175 48.25 51.9975 48.25 57.4375 48.25 C57.9325 55.18 57.9325 55.18 58.4375 62.25 C60.4175 62.745 60.4175 62.745 62.4375 63.25 C62.54788614 61.89776973 62.62414949 60.54274851 62.6875 59.1875 C62.73390625 58.43339844 62.7803125 57.67929687 62.828125 56.90234375 C61.68417319 49.13491093 55.68763693 44.25225144 50.21484375 39.23242188 C44.57250029 33.85844974 41.22396641 28.11466411 40.4375 20.25 C39.7775 21.57 39.1175 22.89 38.4375 24.25 C35.1375 24.25 31.8375 24.25 28.4375 24.25 C29.4375 16.82142857 29.4375 16.82142857 30.4375 13.25 C28.7875 13.25 27.1375 13.25 25.4375 13.25 C25.9325 14.24 25.9325 14.24 26.4375 15.25 C26.54213704 16.7134747 26.58616303 18.18152398 26.59863281 19.64868164 C26.60824036 20.5604567 26.6178479 21.47223175 26.62774658 22.41163635 C26.63199646 23.40114792 26.63624634 24.39065948 26.640625 25.41015625 C26.64632507 26.4291954 26.65202515 27.44823456 26.65789795 28.49815369 C26.66735956 30.66111205 26.67388652 32.82408491 26.67773438 34.98706055 C26.6873894 38.27483908 26.71838104 41.56197901 26.75 44.84960938 C26.75653517 46.9531213 26.76178362 49.05663768 26.765625 51.16015625 C26.7779718 52.1354982 26.7903186 53.11084015 26.80303955 54.11573792 C26.77870201 61.68875438 25.89207496 68.30451004 20.9375 74.25 C16.97596813 77.4192255 13.94438192 77.36994064 9.01953125 77.34765625 C7.13911133 77.34282227 7.13911133 77.34282227 5.22070312 77.33789062 C3.91037109 77.32951172 2.60003906 77.32113281 1.25 77.3125 C-0.08528481 77.30748317 -1.42057141 77.30292059 -2.75585938 77.29882812 C-6.02478473 77.28702695 -9.29361991 77.27056297 -12.5625 77.25 C-12.58562428 67.35810624 -12.60341552 57.46621886 -12.61431217 47.57430363 C-12.61954082 42.9815736 -12.62663812 38.388862 -12.63793945 33.79614258 C-12.648769 29.36766312 -12.65477698 24.93920144 -12.65737724 20.51070976 C-12.65923137 18.81734372 -12.66285175 17.12397871 -12.66823006 15.43062019 C-12.6754414 13.06708768 -12.6764909 10.70362955 -12.67602539 8.34008789 C-12.67962067 7.63302704 -12.68321594 6.92596619 -12.68692017 6.19747925 C-12.6687597 -2.26869272 -7.20132023 0.0337496 0 0 Z M4.4375 15.25 C4.4375 31.09 4.4375 46.93 4.4375 63.25 C6.9125 62.755 6.9125 62.755 9.4375 62.25 C10.57278876 59.97942248 10.56415775 58.73529648 10.56689453 56.21508789 C10.57162277 54.96853172 10.57162277 54.96853172 10.57644653 53.6967926 C10.5744223 52.79782761 10.57239807 51.89886261 10.5703125 50.97265625 C10.57126923 50.05036728 10.57222595 49.12807831 10.57321167 48.17784119 C10.5738929 46.22508679 10.57204261 44.27233014 10.56787109 42.31958008 C10.56252811 39.32823599 10.56781489 36.33704248 10.57421875 33.34570312 C10.57355784 31.4505205 10.57227641 29.55533797 10.5703125 27.66015625 C10.57233673 26.76321548 10.57436096 25.86627472 10.57644653 24.94215393 C10.57329437 24.10796432 10.57014221 23.27377472 10.56689453 22.41430664 C10.56609894 21.6808754 10.56530334 20.94744415 10.56448364 20.19178772 C10.50566695 18.03175648 10.50566695 18.03175648 9.4375 15.25 C7.7875 15.25 6.1375 15.25 4.4375 15.25 Z M96.4375 24.25 C93.85938766 26.82811234 94.19997915 28.55344159 94.18525696 32.06652832 C94.19244247 32.85926147 94.19962799 33.65199463 94.20703125 34.46875 C94.20748947 35.28243042 94.20794769 36.09611084 94.2084198 36.93444824 C94.21144289 38.65602068 94.2193309 40.37759036 94.23168945 42.09912109 C94.24992648 44.73935602 94.25219928 47.37923996 94.25195312 50.01953125 C94.25686906 51.69010721 94.2626977 53.36068078 94.26953125 55.03125 C94.27064407 55.82398315 94.2717569 56.61671631 94.27290344 57.43347168 C94.21612731 61.47262999 94.21612731 61.47262999 95.4375 65.25 C97.9125 64.755 97.9125 64.755 100.4375 64.25 C100.4375 51.38 100.4375 38.51 100.4375 25.25 C99.1175 24.92 97.7975 24.59 96.4375 24.25 Z M135.4375 24.25 C132.89663751 26.79086249 133.19034371 28.42235035 133.15960693 31.88841248 C133.1636554 32.6561348 133.16770386 33.42385712 133.171875 34.21484375 C133.16900482 35.3985128 133.16900482 35.3985128 133.16607666 36.60609436 C133.16471467 38.2763806 133.1684121 39.94667742 133.17675781 41.61694336 C133.1874432 44.1739077 133.17687061 46.73016718 133.1640625 49.28710938 C133.16538437 50.90885572 133.16794734 52.53060162 133.171875 54.15234375 C133.16782654 54.91804184 133.16377808 55.68373993 133.15960693 56.47264099 C133.193102 60.26649251 133.28145356 62.01593033 135.4375 65.25 C137.41286745 64.90213292 137.41286745 64.90213292 139.4375 64.25 C140.67439062 61.77621876 140.57060087 60.07084683 140.5625 57.3125 C140.56636719 55.99958984 140.56636719 55.99958984 140.5703125 54.66015625 C140.53572003 52.10540944 140.53572003 52.10540944 139.4375 49.25 C145.0475 49.25 150.6575 49.25 156.4375 49.25 C156.4375 45.62 156.4375 41.99 156.4375 38.25 C150.8275 38.25 145.2175 38.25 139.4375 38.25 C139.4375 33.96 139.4375 29.67 139.4375 25.25 C138.1175 24.92 136.7975 24.59 135.4375 24.25 Z M189.4375 24.25 C189.1075 24.58 188.7775 24.91 188.4375 25.25 C188.4375 27.56 188.4375 29.87 188.4375 32.25 C183.1575 32.25 177.8775 32.25 172.4375 32.25 C172.4375 37.53 172.4375 42.81 172.4375 48.25 C173.7575 46.6 175.0775 44.95 176.4375 43.25 C179.72788265 40.23858458 183.52457545 38.96283336 187.6875 37.5625 C188.66203125 37.22508789 188.66203125 37.22508789 189.65625 36.88085938 C191.24780199 36.33083773 192.84236156 35.78953212 194.4375 35.25 C194.47875 33.991875 194.52 32.73375 194.5625 31.4375 C194.58570313 30.72980469 194.60890625 30.02210938 194.6328125 29.29296875 C194.57004462 26.93640281 194.57004462 26.93640281 192.4375 24.25 C191.4475 24.25 190.4575 24.25 189.4375 24.25 Z M190.89453125 45.23046875 C187.67254514 49.19007966 187.83932128 51.6444309 188.125 56.5625 C188.14755859 57.30306641 188.17011719 58.04363281 188.19335938 58.80664062 C188.2519185 60.62197357 188.34159114 62.43625681 188.4375 64.25 C189.7575 64.58 191.0775 64.91 192.4375 65.25 C194.10424321 62.33175756 194.6807008 60.27405621 194.6328125 56.921875 C194.62636719 56.12265625 194.61992187 55.3234375 194.61328125 54.5 C194.59652344 53.675 194.57976562 52.85 194.5625 52 C194.54896484 50.73929687 194.54896484 50.73929687 194.53515625 49.453125 C194.51165817 47.38529396 194.47578908 45.31761005 194.4375 43.25 C193.03179527 43.14759268 193.03179527 43.14759268 190.89453125 45.23046875 Z " fill="#141414" transform="translate(171.5625,217.75)"/>
<path d="M0 0 C2.31004617 1.776522 3.98053702 3.80869615 5.58984375 6.22265625 C5.91984375 3.58265625 6.24984375 0.94265625 6.58984375 -1.77734375 C11.53984375 -1.77734375 16.48984375 -1.77734375 21.58984375 -1.77734375 C21.58984375 19.67265625 21.58984375 41.12265625 21.58984375 63.22265625 C16.63984375 63.22265625 11.68984375 63.22265625 6.58984375 63.22265625 C6.09484375 59.26265625 6.09484375 59.26265625 5.58984375 55.22265625 C4.90921875 56.15078125 4.22859375 57.07890625 3.52734375 58.03515625 C-0.22305534 62.42966821 -3.81997298 63.95470626 -9.46875 64.5390625 C-16.23028305 64.78138334 -21.9607725 64.53115917 -27.41015625 60.22265625 C-34.22246429 52.71164995 -32.59255616 40.95243249 -32.59765625 31.41015625 C-32.61602539 29.61868164 -32.61602539 29.61868164 -32.63476562 27.79101562 C-32.6649393 9.31466993 -32.6649393 9.31466993 -28.72265625 2.16015625 C-20.81424844 -4.46580705 -8.94499662 -5.27622422 0 0 Z M-14.41015625 10.22265625 C-16.95101874 12.76351874 -16.65731254 14.3950066 -16.68804932 17.86106873 C-16.68400085 18.62879105 -16.67995239 19.39651337 -16.67578125 20.1875 C-16.67865143 21.37116905 -16.67865143 21.37116905 -16.68157959 22.57875061 C-16.68294158 24.24903685 -16.67924415 25.91933367 -16.67089844 27.58959961 C-16.66021305 30.14656395 -16.67078564 32.70282343 -16.68359375 35.25976562 C-16.68227188 36.88151197 -16.67970891 38.50325787 -16.67578125 40.125 C-16.67982971 40.89069809 -16.68387817 41.65639618 -16.68804932 42.44529724 C-16.65455425 46.23914876 -16.56620269 47.98858658 -14.41015625 51.22265625 C-12.4347888 50.87478917 -12.4347888 50.87478917 -10.41015625 50.22265625 C-9.17326563 47.74887501 -9.27705538 46.04350308 -9.28515625 43.28515625 C-9.28128906 41.97224609 -9.28128906 41.97224609 -9.27734375 40.6328125 C-9.31193622 38.07806569 -9.31193622 38.07806569 -10.41015625 35.22265625 C-4.80015625 35.22265625 0.80984375 35.22265625 6.58984375 35.22265625 C6.58984375 31.59265625 6.58984375 27.96265625 6.58984375 24.22265625 C0.97984375 24.22265625 -4.63015625 24.22265625 -10.41015625 24.22265625 C-10.41015625 19.93265625 -10.41015625 15.64265625 -10.41015625 11.22265625 C-11.73015625 10.89265625 -13.05015625 10.56265625 -14.41015625 10.22265625 Z " fill="#0E0E0E" transform="translate(321.41015625,231.77734375)"/>
<path d="M0 0 C4.95 0 9.9 0 15 0 C15 25.08 15 50.16 15 76 C10.05 76 5.1 76 0 76 C0 50.92 0 25.84 0 0 Z " fill="#000000" transform="translate(383,219)"/>
<path d="M0 0 C4.95 0 9.9 0 15 0 C15 21.45 15 42.9 15 65 C10.05 65 5.1 65 0 65 C0 43.55 0 22.1 0 0 Z " fill="#000000" transform="translate(328,230)"/>
<path d="M0 0 C4.1784625 1.18206505 6.39329546 4.23423318 8.9921875 7.51220703 C11.98663816 10.57061683 14.59038402 10.35947513 18.703125 10.41064453 C22.29186121 10.65436176 24.35508573 12.24917658 27.00390625 14.56689453 C29.64313219 18.31981831 29.30988563 22.46675363 29.3046875 26.87548828 C29.30897263 27.67922379 29.31325775 28.48295929 29.31767273 29.31105042 C29.32340617 31.00805725 29.32392355 32.70508865 29.31958008 34.40209961 C29.31642141 36.99196497 29.33988594 39.58068604 29.36523438 42.17041016 C29.36750768 43.82210143 29.36821072 45.47379576 29.3671875 47.12548828 C29.37639725 47.89646347 29.38560699 48.66743866 29.39509583 49.46177673 C29.3561695 54.00810107 29.00181386 57.07111377 26.00390625 60.56689453 C20.54800129 64.56490655 14.51528969 64.00079949 8.03515625 63.96533203 C6.30465027 63.9696373 6.30465027 63.9696373 4.53918457 63.97402954 C2.10505684 63.97606697 -0.32908738 63.97055968 -2.76318359 63.95800781 C-6.4831208 63.94195053 -10.20197148 63.95786841 -13.921875 63.97705078 C-16.29036697 63.97506829 -18.65885828 63.97122451 -21.02734375 63.96533203 C-22.69162415 63.97444107 -22.69162415 63.97444107 -24.38952637 63.98373413 C-34.45807012 63.89229575 -34.45807012 63.89229575 -38.99609375 60.56689453 C-42.53722972 56.44983858 -42.44901361 52.14078483 -42.4296875 46.94189453 C-42.43492935 46.11737793 -42.4401712 45.29286133 -42.4455719 44.44335938 C-42.45197712 42.70525231 -42.45067455 40.96710181 -42.44213867 39.22900391 C-42.43362048 36.5752224 -42.46242172 33.92358907 -42.49414062 31.27001953 C-42.49575267 29.57731184 -42.49517504 27.88460035 -42.4921875 26.19189453 C-42.50342148 25.40218262 -42.51465546 24.6124707 -42.52622986 23.79882812 C-42.46318404 18.79685463 -41.72946444 16.21013136 -37.99609375 12.56689453 C-35.13862188 10.68624015 -33.17347166 10.4492326 -29.80859375 10.50439453 C-26.51070111 10.24907381 -25.35270949 9.94348076 -23.04296875 7.50439453 C-22.388125 6.67939453 -21.73328125 5.85439453 -21.05859375 5.00439453 C-15.32818381 -1.29198182 -8.01328326 -1.22463872 0 0 Z M-20.84375 10.51611328 C-23.41778409 12.9686866 -24.68613233 13.17658033 -28.18359375 13.31689453 C-28.96089844 13.27048828 -29.73820312 13.22408203 -30.5390625 13.17626953 C-34.23685512 13.76415389 -36.69202334 15.71845807 -38.99609375 18.56689453 C-39.58634009 21.57347392 -39.79656973 23.76099973 -39.72265625 26.75439453 C-39.72365326 27.53451904 -39.72465027 28.31464355 -39.72567749 29.1184082 C-39.72101105 30.76247381 -39.70164107 32.40655567 -39.66845703 34.05029297 C-39.62122846 36.559737 -39.62734316 39.06493085 -39.640625 41.57470703 C-39.6294706 43.17629473 -39.61525025 44.77786463 -39.59765625 46.37939453 C-39.59947906 47.12535889 -39.60130188 47.87132324 -39.60317993 48.63989258 C-39.47063104 53.53628931 -38.55296826 56.17400947 -34.99609375 59.56689453 C-32.05748132 60.54643201 -30.11722502 60.70436817 -27.05322266 60.72802734 C-26.04852936 60.73763489 -25.04383606 60.74724243 -24.00869751 60.75714111 C-22.38210709 60.76351593 -22.38210709 60.76351593 -20.72265625 60.77001953 C-19.04881363 60.77856964 -19.04881363 60.77856964 -17.34115601 60.78729248 C-14.97907459 60.79674287 -12.61697999 60.80327661 -10.25488281 60.80712891 C-6.64234424 60.81683742 -3.03037384 60.84786235 0.58203125 60.87939453 C2.8762987 60.88592434 5.17057023 60.8911749 7.46484375 60.89501953 C9.08536148 60.91353973 9.08536148 60.91353973 10.73861694 60.93243408 C17.90992171 61.02194326 17.90992171 61.02194326 24.00390625 57.56689453 C26.45630475 53.88829679 26.32693523 51.0529754 26.33984375 46.79345703 C26.34650055 46.03269867 26.35315735 45.27194031 26.36001587 44.48812866 C26.37013548 42.87931738 26.3748331 41.27046417 26.37451172 39.66162109 C26.37887855 37.20746146 26.41518409 34.75511021 26.453125 32.30126953 C26.45899474 30.7361715 26.46296308 29.17106494 26.46484375 27.60595703 C26.47921478 26.87559235 26.49358582 26.14522766 26.50839233 25.39273071 C26.46477267 20.49669125 25.49430736 17.99713033 22.00390625 14.56689453 C20.03593327 13.39656904 20.03593327 13.39656904 17.71875 13.56689453 C10.08519169 13.56689453 10.08519169 13.56689453 6.76953125 10.50048828 C6.08375 9.67677734 5.39796875 8.85306641 4.69140625 8.00439453 C0.99973133 3.87528596 -1.44273821 2.76926276 -6.99609375 2.44189453 C-13.93420472 2.85133241 -16.53012494 5.35100916 -20.84375 10.51611328 Z " fill="#767676" transform="translate(115.99609375,227.43310546875)"/>
<path d="M0 0 C3.30199421 3.39911169 4.44632725 6.27261679 4.625 11 C4.55128754 15.98296229 3.0519293 18.40019335 -0.3671875 21.91015625 C-3.78953703 24.80940054 -7.08687133 24.45825743 -11.3984375 24.40234375 C-15.7407113 24.02564807 -17.84176821 22.32761783 -20.6875 19.1875 C-22.53219803 14.52721025 -22.64220688 10.12368009 -21.875 5.1875 C-20.16666897 1.49341666 -17.6835699 -0.39923094 -14.0625 -2.25 C-8.72035694 -3.19273113 -4.63823037 -2.92410176 0 0 Z " fill="#121212" transform="translate(421.875,276.8125)"/>
<path d="M0 0 C5.61 0 11.22 0 17 0 C17.97141229 8.85064532 17.85174236 17.14187944 17 26 C16.67 26 16.34 26 16 26 C15.67 24.02 15.34 22.04 15 20 C14.34 21.32 13.68 22.64 13 24 C9.7 24 6.4 24 3 24 C4 16.57142857 4 16.57142857 5 13 C3.35 13 1.7 13 0 13 C-1.49640828 8.51077515 -0.54749697 4.68414076 0 0 Z " fill="#1C1C1C" transform="translate(197,218)"/>
<path d="M0 0 C4.65793872 2.64845025 6.98723529 5.5785112 9 10.5625 C10.09532709 16.53701143 9.7941003 21.21786371 6.9375 26.625 C3.89080859 30.26410362 1.22134348 32.80121884 -3.3125 34.3125 C-9.53437421 34.8204081 -15.05753901 35.06604356 -20.3125 31.3125 C-24.7380228 26.8869772 -27.2427672 22.72309954 -27.34375 16.3359375 C-26.94176745 11.1302635 -25.3323505 7.55661421 -22.3125 3.3125 C-15.46530414 -1.99757026 -8.06182428 -3.74406821 0 0 Z M-21.125 6.9375 C-24.01708908 10.73101944 -24.71070805 14.6056809 -24.3125 19.3125 C-23.00570021 23.88629927 -21.06061051 26.67823239 -17.4375 29.75 C-12.82155215 32.05797392 -9.84750005 32.58179825 -4.75 31.6875 C0.47626805 29.59699278 2.81875155 26.84728892 5.5625 22 C6.88861424 17.6532922 7.21411304 14.61400637 5.6875 10.3125 C3.43963195 6.69605613 0.91936641 4.03898532 -2.75 1.875 C-10.43328565 0.1884251 -15.40735837 1.60103448 -21.125 6.9375 Z " fill="#5A5A5A" transform="translate(118.3125,246.6875)"/>
<path d="M0 0 C0.33 0 0.66 0 1 0 C1.01458252 1.03930664 1.02916504 2.07861328 1.04418945 3.14941406 C1.10223181 7.01125215 1.1794638 10.87251076 1.26245117 14.73388672 C1.2956727 16.40403833 1.32371334 18.07430146 1.34643555 19.74462891 C1.38003334 22.14794363 1.43234946 24.55023899 1.48828125 26.953125 C1.49786613 28.0705307 1.49786613 28.0705307 1.50764465 29.21051025 C1.59673044 32.36284627 1.80981565 34.65478795 3.34448242 37.44042969 C6.24902749 40.17663879 9.14605727 40.13181512 12.94287109 40.16113281 C13.94756439 40.17074036 14.95225769 40.1803479 15.98739624 40.19024658 C17.61398666 40.1966214 17.61398666 40.1966214 19.2734375 40.203125 C20.94728012 40.21167511 20.94728012 40.21167511 22.65493774 40.22039795 C25.01701916 40.22984834 27.37911376 40.23638208 29.74121094 40.24023438 C33.35374951 40.24994289 36.96571991 40.28096782 40.578125 40.3125 C42.87239245 40.31902981 45.16666398 40.32428037 47.4609375 40.328125 C49.08145523 40.3466452 49.08145523 40.3466452 50.73471069 40.36553955 C57.89908586 40.45153534 57.89908586 40.45153534 64 37 C65.55495698 33.89008604 65.24076956 30.56655951 65.31640625 27.1484375 C65.3475779 25.98738998 65.3475779 25.98738998 65.37937927 24.80288696 C65.44483448 22.32701608 65.50374087 19.85103798 65.5625 17.375 C65.60568907 15.69790552 65.64930348 14.02082193 65.69335938 12.34375 C65.80051171 8.22927692 65.90179045 4.11469586 66 0 C66.33 0 66.66 0 67 0 C67.02505615 0.94842773 67.0501123 1.89685547 67.07592773 2.87402344 C67.1711884 6.40018032 67.27041441 9.92617959 67.37231445 13.45214844 C67.41556707 14.97684386 67.45724885 16.50158469 67.49731445 18.02636719 C67.55525203 20.22084222 67.61887795 22.41509068 67.68359375 24.609375 C67.70030624 25.2886908 67.71701874 25.96800659 67.73423767 26.66790771 C67.81615173 29.29784315 67.93510218 31.7451659 68.58618164 34.30175781 C69 36 69 36 67.9375 38.5625 C65.4381499 41.70684367 63.79163971 42.56511857 60 44 C56.00925542 44.43787549 52.04274236 44.42039344 48.03125 44.3984375 C46.30074402 44.40274277 46.30074402 44.40274277 44.53527832 44.40713501 C42.10115059 44.40917244 39.66700637 44.40366515 37.23291016 44.39111328 C33.51297295 44.375056 29.79412227 44.39097388 26.07421875 44.41015625 C23.70572678 44.40817376 21.33723547 44.40432997 18.96875 44.3984375 C17.3044696 44.40754654 17.3044696 44.40754654 15.60656738 44.4168396 C10.02762824 44.36617397 5.75727646 44.27038285 1 41 C-0.9375 38.5 -0.9375 38.5 -2 36 C-1.67 35.01 -1.34 34.02 -1 33 C-0.8470353 30.48945095 -0.74304822 28.00111475 -0.68359375 25.48828125 C-0.66281265 24.76005661 -0.64203156 24.03183197 -0.62062073 23.28153992 C-0.55531254 20.95862125 -0.49632763 18.63559094 -0.4375 16.3125 C-0.39429695 14.73631665 -0.35068208 13.16014452 -0.30664062 11.58398438 C-0.1996504 7.72277025 -0.09833039 3.86144397 0 0 Z " fill="#646464" transform="translate(76,247)"/>
<path d="M0 0 C5.28 0 10.56 0 16 0 C16 3.96 16 7.92 16 12 C10.72 12 5.44 12 0 12 C0 8.04 0 4.08 0 0 Z " fill="#212121" transform="translate(328,214)"/>
<path d="M0 0 C0.99 0 1.98 0 3 0 C2.77183594 0.556875 2.54367188 1.11375 2.30859375 1.6875 C-0.20488673 8.36005805 -0.73443475 13.09752182 2.25 19.8125 C6.85569224 25.5696153 13.08328358 25.97036621 20 27 C20 27.66 20 28.32 20 29 C8.00666889 29.57619206 8.00666889 29.57619206 3 26 C-1.02684319 21.97315681 -3.03032929 18.62409012 -4 13 C-3.99064448 8.09770848 -3.14847902 3.87505111 0 0 Z " fill="#414141" transform="translate(95,252)"/>
<path d="M0 0 C11.57983353 -0.76294657 11.57983353 -0.76294657 14.94140625 1.04296875 C19.05784898 5.23313881 19.13794562 8.85994622 19.09765625 14.4140625 C19.0962413 15.14370209 19.09482635 15.87334167 19.09336853 16.62509155 C19.08776531 18.95843585 19.07521235 21.29168464 19.0625 23.625 C19.05748541 25.20572778 19.05292243 26.78645707 19.04882812 28.3671875 C19.03779484 32.24482854 19.02052811 36.12239807 19 40 C18.01 40.495 18.01 40.495 17 41 C17 30.11 17 19.22 17 8 C16.34 8 15.68 8 15 8 C13.29220027 6.37550757 11.62449243 4.70779973 10 3 C8.41727399 1.41727399 6.61965997 1.65264253 4.4375 1.4375 C3.61121094 1.35371094 2.78492188 1.26992187 1.93359375 1.18359375 C1.29550781 1.12300781 0.65742187 1.06242188 0 1 C0 0.67 0 0.34 0 0 Z " fill="#0E0E0E" transform="translate(126,239)"/>
<path d="M0 0 C0.66 0 1.32 0 2 0 C1.84152588 0.4940332 1.68305176 0.98806641 1.51977539 1.49707031 C0.79279058 4.99779755 0.76349754 8.48527031 0.68359375 12.046875 C0.66281265 12.81807678 0.64203156 13.58927856 0.62062073 14.3838501 C0.55541428 16.83914572 0.49637516 19.29454521 0.4375 21.75 C0.39428726 23.41797935 0.3506721 25.08594832 0.30664062 26.75390625 C0.19976264 30.83583196 0.09841434 34.91786182 0 39 C-2.51704805 36.48295195 -2.24669599 34.92327101 -2.27789307 31.48840332 C-2.2738446 30.73941772 -2.26979614 29.99043213 -2.265625 29.21875 C-2.26753845 28.44946167 -2.2694519 27.68017334 -2.27142334 26.88757324 C-2.27278508 25.2601692 -2.26908939 23.6327543 -2.26074219 22.00537109 C-2.25004221 19.50984369 -2.26063751 17.01503618 -2.2734375 14.51953125 C-2.2721159 12.94010257 -2.2695535 11.36067434 -2.265625 9.78125 C-2.26967346 9.0322644 -2.27372192 8.28327881 -2.27789307 7.51159668 C-2.22992243 2.22992243 -2.22992243 2.22992243 0 0 Z " fill="#0C0C0C" transform="translate(76,243)"/>
<path d="M0 0 C0.33 0 0.66 0 1 0 C1.02505615 0.94842773 1.0501123 1.89685547 1.07592773 2.87402344 C1.1711884 6.40018032 1.27041441 9.92617959 1.37231445 13.45214844 C1.41556707 14.97684386 1.45724885 16.50158469 1.49731445 18.02636719 C1.55525203 20.22084222 1.61887795 22.41509068 1.68359375 24.609375 C1.70030624 25.2886908 1.71701874 25.96800659 1.73423767 26.66790771 C1.81615183 29.29784651 1.93384787 31.74239809 2.59008789 34.29785156 C3 36 3 36 1.875 38.625 C-0.24148827 41.30588515 -1.76849539 42.03928241 -5 43 C-5 42.34 -5 41.68 -5 41 C-5.66 40.67 -6.32 40.34 -7 40 C-6.195625 39.54625 -5.39125 39.0925 -4.5625 38.625 C-1.91143428 37.25274335 -1.91143428 37.25274335 -1 35 C-0.84339117 32.37619687 -0.7417092 29.77475148 -0.68359375 27.1484375 C-0.66281265 26.37440582 -0.64203156 25.60037415 -0.62062073 24.80288696 C-0.55516552 22.32701608 -0.49625913 19.85103798 -0.4375 17.375 C-0.39431093 15.69790552 -0.35069652 14.02082193 -0.30664062 12.34375 C-0.19948829 8.22927692 -0.09820955 4.11469586 0 0 Z " fill="#8B8B8B" transform="translate(142,247)"/>
<path d="M0 0 C1.32 0 2.64 0 4 0 C2.84826645 2.46800047 1.95216435 4.04783565 0 6 C-2.20703125 6.30859375 -2.20703125 6.30859375 -4.8125 6.4375 C-8.94484422 6.76043283 -11.63344574 7.41897507 -15 10 C-15 9.34 -15 8.68 -15 8 C-15.66 7.67 -16.32 7.34 -17 7 C-12.61535379 3.51476839 -9.54702146 2.52078666 -3.953125 2.2734375 C-1.76557121 2.16706357 -1.76557121 2.16706357 0 0 Z " fill="#585858" transform="translate(93,235)"/>
<path d="M0 0 C1.24716797 0.04060547 1.24716797 0.04060547 2.51953125 0.08203125 C4.55581888 0.15224806 6.59075833 0.25985425 8.625 0.375 C7.635 1.86 7.635 1.86 6.625 3.375 C3.10632915 3.79866759 -0.35227879 3.81510451 -3.89453125 3.87109375 C-7.87038122 4.44672186 -9.51266695 5.63261234 -12.375 8.375 C-13.365 7.715 -14.355 7.055 -15.375 6.375 C-10.54088076 0.41448405 -7.52678864 -0.46817346 0 0 Z " fill="#787878" transform="translate(109.375,227.625)"/>
<path d="M0 0 C0.33 0.99 0.66 1.98 1 3 C1.66 3 2.32 3 3 3 C1.92630079 8.01059634 -0.09041096 10.78841204 -3.98046875 13.94140625 C-7.53101171 15.80252258 -10.20375033 14.9324122 -14 14 C-14 13.67 -14 13.34 -14 13 C-12.9275 12.71125 -11.855 12.4225 -10.75 12.125 C-6.67408678 10.94484901 -6.67408678 10.94484901 -3 9 C-1.8774351 6.83718718 -1.8774351 6.83718718 -1.25 4.375 C-1.00765625 3.55773437 -0.7653125 2.74046875 -0.515625 1.8984375 C-0.34546875 1.27195312 -0.1753125 0.64546875 0 0 Z " fill="#585858" transform="translate(124,265)"/>
<path d="M0 0 C2.4503323 0.45376524 3.99815325 0.99871287 6.0625 2.4375 C10.45834242 4.77571405 15.11196112 5.27235849 20 6 C20 6.66 20 7.32 20 8 C12.54153631 8.35832477 7.11100527 8.42583773 1.125 3.4375 C0 2 0 2 0 0 Z " fill="#3F3F3F" transform="translate(95,273)"/>
<path d="M0 0 C2.77141717 -0.08089542 5.54047819 -0.14044062 8.3125 -0.1875 C9.09818359 -0.21263672 9.88386719 -0.23777344 10.69335938 -0.26367188 C11.45068359 -0.27333984 12.20800781 -0.28300781 12.98828125 -0.29296875 C14.03302612 -0.31653442 14.03302612 -0.31653442 15.09887695 -0.34057617 C17.60718396 0.10877381 18.48831511 0.98018574 20 3 C20 3.99 20 4.98 20 6 C18.125 5.75 18.125 5.75 16 5 C15.34 3.68 14.68 2.36 14 1 C9.38 1 4.76 1 0 1 C0 0.67 0 0.34 0 0 Z " fill="#373737" transform="translate(102,229)"/>
<path d="M0 0 C4 2 4 2 4.64453125 3.83984375 C4.69996094 4.53207031 4.75539063 5.22429687 4.8125 5.9375 C4.88082031 6.62714844 4.94914062 7.31679688 5.01953125 8.02734375 C5 10 5 10 4 13 C3.34 13 2.68 13 2 13 C1.34 8.71 0.68 4.42 0 0 Z " fill="#353535" transform="translate(123,255)"/>
<path d="M0 0 C2.08268593 -0.08126087 4.16628658 -0.13930839 6.25 -0.1875 C7.99023438 -0.23970703 7.99023438 -0.23970703 9.765625 -0.29296875 C13.22268407 0.02017066 14.51565563 0.65709108 17 3 C16.67 3.66 16.34 4.32 16 5 C13 5 13 5 11.375 3.5625 C7.83360159 1.23263262 4.15963945 1.25775544 0 1 C0 0.67 0 0.34 0 0 Z " fill="#3F3F3F" transform="translate(126,239)"/>
<path d="M0 0 C3.41584899 1.41345476 4.86780732 3.03347106 7 6 C7.99 6.66 8.98 7.32 10 8 C7.75 8.75 7.75 8.75 5 9 C2.18181152 6.96464165 1.16692005 5.61204018 0.25 2.25 C0.1675 1.5075 0.085 0.765 0 0 Z " fill="#555555" transform="translate(74,280)"/>
<path d="M0 0 C0 0.66 0 1.32 0 2 C0.66 2.33 1.32 2.66 2 3 C-0.66666667 4.33333333 -3.33333333 5.66666667 -6 7 C-6.99 6.34 -7.98 5.68 -9 5 C-7.87926138 4.16094435 -6.75325453 3.32892169 -5.625 2.5 C-4.99851562 2.0359375 -4.37203125 1.571875 -3.7265625 1.09375 C-2 0 -2 0 0 0 Z " fill="#5E5E5E" transform="translate(104,246)"/>
<path d="M0 0 C2.97 0 5.94 0 9 0 C9 0.99 9 1.98 9 3 C5.7 3 2.4 3 -1 3 C-0.67 2.01 -0.34 1.02 0 0 Z " fill="#404040" transform="translate(105,245)"/>
<path d="M0 0 C0.66 0.33 1.32 0.66 2 1 C2 1.99 2 2.98 2 4 C-2.1795645 6.78637633 -4.14668677 5.79562512 -9 5 C-9 4.67 -9 4.34 -9 4 C-7.88625 3.71125 -6.7725 3.4225 -5.625 3.125 C-1.99708908 2.30758671 -1.99708908 2.30758671 0 0 Z " fill="#636363" transform="translate(119,274)"/>
<path d="M0 0 C0.99 0 1.98 0 3 0 C1.75023244 3.65316671 1.32901247 4.78065836 -2 7 C-2.125 4.625 -2.125 4.625 -2 2 C-1.34 1.34 -0.68 0.68 0 0 Z " fill="#424242" transform="translate(95,252)"/>
<path d="M0 0 C0.33 0.66 0.66 1.32 1 2 C1.99 2 2.98 2 4 2 C4.66 3.32 5.32 4.64 6 6 C4.68 6.33 3.36 6.66 2 7 C0.5393715 4.35261084 0 3.10551666 0 0 Z " fill="#626262" transform="translate(92,267)"/>
<path d="M0 0 C0.66 0.33 1.32 0.66 2 1 C-0.31 3.31 -2.62 5.62 -5 8 C-5 5 -5 5 -2.5 2.3125 C-1.675 1.549375 -0.85 0.78625 0 0 Z " fill="#646464" transform="translate(297,231)"/>
<path d="M0 0 C0.66 1.32 1.32 2.64 2 4 C0.35 4.66 -1.3 5.32 -3 6 C-3 5.34 -3 4.68 -3 4 C-3.66 3.67 -4.32 3.34 -5 3 C-3.35 2.01 -1.7 1.02 0 0 Z " fill="#656565" transform="translate(140,284)"/>
</svg>
